<?xml version="1.0" encoding="utf-8"?>
<!-- Generator: Adobe Illustrator 27.2.0, SVG Export Plug-In . SVG Version: 6.00 Build 0)  -->
<svg version="1.1" id="Capa_1" xmlns="http://www.w3.org/2000/svg" xmlns:xlink="http://www.w3.org/1999/xlink" x="0px" y="0px"
	 viewBox="0 0 263 129.5" style="enable-background:new 0 0 263 129.5;" xml:space="preserve">
<style type="text/css">
	.st0{fill:#939393;}
</style>
<g>
	<path class="st0" d="M231.54,66.5c-17.4,0-31.5,14.1-31.5,31.5s14.1,31.5,31.5,31.5c17.4,0,31.5-14.1,31.5-31.5
		S248.93,66.5,231.54,66.5z M231.54,119.13c-11.67,0-21.13-9.46-21.13-21.13s9.46-21.13,21.13-21.13c11.67,0,21.13,9.46,21.13,21.13
		S243.21,119.13,231.54,119.13z"/>
	<path class="st0" d="M200.1,116.46c-2.97,1.61-6.38,2.53-9.99,2.53h0c-11.59,0-20.98-9.39-20.98-20.98V66.5H158.6h0V98
		c0,11.59-9.39,20.98-20.98,20.98h0c-11.59,0-20.98-9.39-20.98-20.98l-0.02-52.5c0-5.8-4.7-10.5-10.5-10.5v63
		c0,17.4,14.1,31.5,31.5,31.5h0c10.95,0,20.6-5.59,26.24-14.08c5.64,8.48,15.29,14.08,26.24,14.08h0c6.12,0,11.82-1.75,16.65-4.77
		C204.16,122.32,201.91,119.53,200.1,116.46z"/>
	<path class="st0" d="M87.77,3.5L87.77,3.5c-10.95,0-20.6,5.59-26.24,14.08C55.88,9.09,46.24,3.5,35.29,3.5h0
		c-17.4,0-31.5,14.1-31.5,31.5v31.5H14.3V35c0-11.59,9.39-20.98,20.98-20.98h0c11.59,0,20.98,9.39,20.98,20.98c0,0,0,0,0,0v31.5h0
		h10.52h0V35c0,0,0,0,0,0c0-11.59,9.4-20.98,20.98-20.98h0c4.64,0,8.91,1.52,12.38,4.07c1.54-3.39,4.57-5.95,8.26-6.86
		C102.88,6.42,95.67,3.5,87.77,3.5z"/>
	<circle class="st0" cx="111.37" cy="23.19" r="7.65"/>
</g>
</svg>
